<svg clip-rule="evenodd" fill-rule="evenodd" stroke-linejoin="round" stroke-miterlimit="1.41421" viewBox="0 0 1067 402" xmlns="http://www.w3.org/2000/svg"><path d="m646.146 556.288c.654 0 1.266-.319 1.64-.855.374-.535.463-1.22.238-1.833-13.714-36.713-50-63.368-90.721-63.901-.453-.003-.906-.005-1.359-.005-40.029.189-78.516 26.799-92.064 65.607-11.923 34.156-3.221 74.592 22.816 100.941 13.08 13.236 29.969 22.643 48.074 26.708 35.176 7.895 74.191-5.288 97.366-33.738 7.2-8.84 12.816-19.717 16.566-30.586.152-.441.363-1.079.549-1.648.098-.296.048-.622-.135-.875s-.476-.403-.788-.403c-6.693 0-36.374 0-40.745 0-.334 0-.644.172-.823.454-.545.867-1.748 2.762-2.495 3.798-12.343 17.133-34.147 27.242-54.959 24.192-26.325-3.858-48.355-27.913-48.881-55.53-.406-21.365 12.29-42.546 31.487-52.238 23.552-11.891 54.887-4.937 71.437 16.69.558.73 1.469 2.037 1.93 2.705.182.262.479.418.797.419 4.17.013 32.707.098 40.07.098zm127.652 60.243c.325 0 .63.163.81.434.18.272.213.615.086.916-2.136 5.08-9.572 22.765-9.572 22.765-3.899 9.15-13.144 15.186-22.82 15.32-29.003.129-103.793.014-103.793.014 10.078-12.039 17.57-26.181 21.515-41.311 1.031-4.346-2.531-8.637-6.756-8.697l-25.116.001 16.308-39.416 8.155-.031c4.461-.197 7.549-4.637 6.577-8.718 0 0-.579-1.979-1.027-3.358-1.184-3.646-2.565-7.196-4.149-10.644l-.075-.164s9.164-22.15 10.801-26.106c.151-.364.505-.601.899-.601h149.286c.327 0 .632.164.812.437.18.272.211.617.083.918-2.19 5.127-9.847 23.051-9.847 23.051-3.88 8.974-13.116 15.054-22.76 15.189-29.475.138-58.951.001-88.427.001-.578.038-.73.019-1.294.17-2.111.566-3.715 2.647-3.706 4.83.023 5.573 4.967 4.993 5 5h87.252c.325 0 .628.162.808.432.181.27.215.613.09.913-2.107 5.082-9.462 22.82-9.462 22.82-3.793 9.029-12.991 15.219-22.662 15.432-16.694.212-60.371.269-77.066.403-.577.042-.728.025-1.289.18-1.472.406-3.003 1.436-3.3 2.93-1.468 7.398 4.586 6.875 4.629 6.89zm-315.06-76.017c-17.172 35.318-13.159 78.744 9.144 109.898 1.362 1.903 2.786 3.752 4.275 5.532l-100.153.023c-9.061-.04-17.595-5.15-21.875-12.865-.41-.739-.575-1.026-1.134-2.318-9.383-22.269-26.952-64.754-30.289-72.828-.124-.3-.09-.643.091-.912.18-.27.483-.432.808-.433 3.301-.002 11.08-.009 11.08-.009 29.431.115 58.861-.047 88.292-.071 4.183-.278 6.16-5.186 3.96-8.047-.73-.951-1.217-1.495-3.315-1.911-.218-.014-.435-.028-.653-.042-29.506.024-59.012.186-88.517.07-8.905-.118-17.386-5.193-21.641-12.862-.41-.74-.575-1.027-1.134-2.319 0 0-7.491-18.013-9.623-23.139-.125-.3-.091-.643.089-.913.18-.271.484-.433.809-.433h149.38c.394 0 .748.237.899.601 1.521 3.676 9.507 22.978 9.507 22.978zm-18.765 66.017h-55c-1.205.039-1.567.198-2.211.515-4.815 2.375-2.065 9.345 2.211 9.485h55c1.224-.048 1.583-.206 2.212-.516 4.624-2.281 2.311-9.06-1.885-9.473z" fill="#fc2f73" transform="matrix(2.05607 0 0 2.05607 -611.6682 -1006.845)"/></svg>